# xmcd
#
# Track frame offsets: 
#        150
#        11660
#        22294
#        32814
#        42413
#        51882
#        61830
#        72165
#        84335
#        96438
#        107325
#        118800
#        129439
#        140507
#        152109
#        163558
#        175516
#        187396
#        201365
#        213281
#        225649
#        235686
#        246625
#        256425
#
# Disc length: 3575 seconds
#
# Revision: 0
# Processed by: cddbd v1.5.2PL0 Copyright (c) Steve Scherf et al.
# Submitted via: ExactAudioCopy v1.0b1
#
DISCID=590df518
DTITLE=Various Artist - Central Rocks! The Central Avenue Scene Vol. 2
DYEAR=2005
DGENRE=R&B
TTITLE0=Ernie Fields and His Orchestra - Wine (Take 1)
TTITLE1=Chuck Higgins and The Mellotones - Big Fat Mama
TTITLE2=Cledus Harrison - Told You Twice
TTITLE3=Mamie Ree - You Lied
TTITLE4=The Great Gates - Ain't Got No Money
TTITLE5=Rozelle Gayle - I Love That Kind Of Carryin' On
TTITLE6=Paul Preston and His Orchestra - The Chase
TTITLE7=Chuck Higgins Orchestra - The Blacksmith Blues
TTITLE8=Jack McVea - Wino (Take 1)
TTITLE9=Mamie Ree and Young Wolf - No Need Acting Like That
TTITLE10=Brother Woodman and The Chanters - Watts (Take 1)
TTITLE11=Rozelle Gayle - Haste Makes Waste
TTITLE12=Robbin Ray - Baby Baby Take A Look
TTITLE13=Paul Preston and His Orchestra - Twisted
TTITLE14=Chuck Higgins Orchestra - Flip-Top Box
TTITLE15=Mamie Ree and Young Wolf - Caught
TTITLE16=Brother Woodman and The Chanters - Hot Mama
TTITLE17=Joe Houston and His Orchestra - Curfew
TTITLE18=Robbin Ray - Love My Baby
TTITLE19=Gene And Eunice - Ko Ko Mo (Take 1)
TTITLE20=Jack McVea and His Combo - Yaka Boo
TTITLE21=Mamie Ree - Your Loving Is Just All Right
TTITLE22=Chuck Higgins and The Mellotones - Real Gone Hound Dog
TTITLE23=The Great Gates - Central Rocks
EXTD=
EXTT0=
EXTT1=
EXTT2=
EXTT3=
EXTT4=
EXTT5=
EXTT6=
EXTT7=
EXTT8=
EXTT9=
EXTT10=
EXTT11=
EXTT12=
EXTT13=
EXTT14=
EXTT15=
EXTT16=
EXTT17=
EXTT18=
EXTT19=
EXTT20=
EXTT21=
EXTT22=
EXTT23=
PLAYORDER=
